<mxfile host="app.diagrams.net" agent="Mozilla/5.0 (Windows NT 10.0; Win64; x64) AppleWebKit/537.36 (KHTML, like Gecko) Chrome/131.0.0.0 Safari/537.36" version="24.9.0">
  <diagram name="PÃ¡gina-1" id="WPhA3vP5JQu0aLl4Kz-7">
    <mxGraphModel dx="2100" dy="1060" grid="1" gridSize="10" guides="1" tooltips="1" connect="1" arrows="1" fold="1" page="1" pageScale="1" pageWidth="827" pageHeight="1169" math="0" shadow="0">
      <root>
        <mxCell id="0" />
        <mxCell id="1" parent="0" />
        <mxCell id="JOvnXS3k0YMZ6g1WqxkN-7" style="edgeStyle=orthogonalEdgeStyle;rounded=0;orthogonalLoop=1;jettySize=auto;html=1;entryX=0;entryY=0.5;entryDx=0;entryDy=0;" edge="1" parent="1" source="JOvnXS3k0YMZ6g1WqxkN-1" target="JOvnXS3k0YMZ6g1WqxkN-5">
          <mxGeometry relative="1" as="geometry" />
        </mxCell>
        <mxCell id="JOvnXS3k0YMZ6g1WqxkN-12" style="edgeStyle=orthogonalEdgeStyle;rounded=0;orthogonalLoop=1;jettySize=auto;html=1;entryX=0;entryY=0.5;entryDx=0;entryDy=0;" edge="1" parent="1" source="JOvnXS3k0YMZ6g1WqxkN-1" target="JOvnXS3k0YMZ6g1WqxkN-11">
          <mxGeometry relative="1" as="geometry" />
        </mxCell>
        <mxCell id="JOvnXS3k0YMZ6g1WqxkN-14" style="edgeStyle=orthogonalEdgeStyle;rounded=0;orthogonalLoop=1;jettySize=auto;html=1;entryX=0;entryY=0.5;entryDx=0;entryDy=0;" edge="1" parent="1" source="JOvnXS3k0YMZ6g1WqxkN-1" target="JOvnXS3k0YMZ6g1WqxkN-9">
          <mxGeometry relative="1" as="geometry" />
        </mxCell>
        <mxCell id="JOvnXS3k0YMZ6g1WqxkN-16" style="edgeStyle=orthogonalEdgeStyle;rounded=0;orthogonalLoop=1;jettySize=auto;html=1;entryX=0;entryY=0.5;entryDx=0;entryDy=0;" edge="1" parent="1" source="JOvnXS3k0YMZ6g1WqxkN-1" target="JOvnXS3k0YMZ6g1WqxkN-15">
          <mxGeometry relative="1" as="geometry" />
        </mxCell>
        <mxCell id="JOvnXS3k0YMZ6g1WqxkN-19" style="edgeStyle=orthogonalEdgeStyle;rounded=0;orthogonalLoop=1;jettySize=auto;html=1;entryX=0;entryY=0.5;entryDx=0;entryDy=0;" edge="1" parent="1" source="JOvnXS3k0YMZ6g1WqxkN-1" target="JOvnXS3k0YMZ6g1WqxkN-18">
          <mxGeometry relative="1" as="geometry" />
        </mxCell>
        <mxCell id="JOvnXS3k0YMZ6g1WqxkN-22" style="edgeStyle=orthogonalEdgeStyle;rounded=0;orthogonalLoop=1;jettySize=auto;html=1;entryX=0;entryY=0.5;entryDx=0;entryDy=0;" edge="1" parent="1" source="JOvnXS3k0YMZ6g1WqxkN-1" target="JOvnXS3k0YMZ6g1WqxkN-21">
          <mxGeometry relative="1" as="geometry" />
        </mxCell>
        <mxCell id="JOvnXS3k0YMZ6g1WqxkN-26" style="edgeStyle=orthogonalEdgeStyle;rounded=0;orthogonalLoop=1;jettySize=auto;html=1;entryX=0;entryY=0.5;entryDx=0;entryDy=0;" edge="1" parent="1" source="JOvnXS3k0YMZ6g1WqxkN-1" target="JOvnXS3k0YMZ6g1WqxkN-25">
          <mxGeometry relative="1" as="geometry" />
        </mxCell>
        <mxCell id="JOvnXS3k0YMZ6g1WqxkN-29" style="edgeStyle=orthogonalEdgeStyle;rounded=0;orthogonalLoop=1;jettySize=auto;html=1;entryX=0;entryY=0.5;entryDx=0;entryDy=0;" edge="1" parent="1" source="JOvnXS3k0YMZ6g1WqxkN-1" target="JOvnXS3k0YMZ6g1WqxkN-28">
          <mxGeometry relative="1" as="geometry" />
        </mxCell>
        <mxCell id="JOvnXS3k0YMZ6g1WqxkN-1" value="Admin" style="shape=umlActor;verticalLabelPosition=bottom;verticalAlign=top;html=1;outlineConnect=0;" vertex="1" parent="1">
          <mxGeometry x="40" y="40" width="80" height="130" as="geometry" />
        </mxCell>
        <mxCell id="JOvnXS3k0YMZ6g1WqxkN-8" style="edgeStyle=orthogonalEdgeStyle;rounded=0;orthogonalLoop=1;jettySize=auto;html=1;entryX=1;entryY=0.5;entryDx=0;entryDy=0;" edge="1" parent="1" source="JOvnXS3k0YMZ6g1WqxkN-2" target="JOvnXS3k0YMZ6g1WqxkN-5">
          <mxGeometry relative="1" as="geometry" />
        </mxCell>
        <mxCell id="JOvnXS3k0YMZ6g1WqxkN-13" style="edgeStyle=orthogonalEdgeStyle;rounded=0;orthogonalLoop=1;jettySize=auto;html=1;entryX=1;entryY=0.5;entryDx=0;entryDy=0;" edge="1" parent="1" source="JOvnXS3k0YMZ6g1WqxkN-2" target="JOvnXS3k0YMZ6g1WqxkN-11">
          <mxGeometry relative="1" as="geometry" />
        </mxCell>
        <mxCell id="JOvnXS3k0YMZ6g1WqxkN-20" style="edgeStyle=orthogonalEdgeStyle;rounded=0;orthogonalLoop=1;jettySize=auto;html=1;entryX=1;entryY=0.5;entryDx=0;entryDy=0;" edge="1" parent="1" source="JOvnXS3k0YMZ6g1WqxkN-2" target="JOvnXS3k0YMZ6g1WqxkN-15">
          <mxGeometry relative="1" as="geometry" />
        </mxCell>
        <mxCell id="JOvnXS3k0YMZ6g1WqxkN-23" style="edgeStyle=orthogonalEdgeStyle;rounded=0;orthogonalLoop=1;jettySize=auto;html=1;entryX=1;entryY=0.5;entryDx=0;entryDy=0;" edge="1" parent="1" source="JOvnXS3k0YMZ6g1WqxkN-2" target="JOvnXS3k0YMZ6g1WqxkN-21">
          <mxGeometry relative="1" as="geometry" />
        </mxCell>
        <mxCell id="JOvnXS3k0YMZ6g1WqxkN-27" style="edgeStyle=orthogonalEdgeStyle;rounded=0;orthogonalLoop=1;jettySize=auto;html=1;entryX=1;entryY=0.5;entryDx=0;entryDy=0;" edge="1" parent="1" source="JOvnXS3k0YMZ6g1WqxkN-2" target="JOvnXS3k0YMZ6g1WqxkN-25">
          <mxGeometry relative="1" as="geometry" />
        </mxCell>
        <mxCell id="JOvnXS3k0YMZ6g1WqxkN-2" value="Employee" style="shape=umlActor;verticalLabelPosition=bottom;verticalAlign=top;html=1;outlineConnect=0;" vertex="1" parent="1">
          <mxGeometry x="680" y="40" width="80" height="130" as="geometry" />
        </mxCell>
        <mxCell id="JOvnXS3k0YMZ6g1WqxkN-5" value="Login" style="ellipse;whiteSpace=wrap;html=1;" vertex="1" parent="1">
          <mxGeometry x="344" y="199" width="140" height="70" as="geometry" />
        </mxCell>
        <mxCell id="JOvnXS3k0YMZ6g1WqxkN-9" value="Create Order" style="ellipse;whiteSpace=wrap;html=1;" vertex="1" parent="1">
          <mxGeometry x="344" y="584" width="140" height="70" as="geometry" />
        </mxCell>
        <mxCell id="JOvnXS3k0YMZ6g1WqxkN-11" value="Get Orders" style="ellipse;whiteSpace=wrap;html=1;" vertex="1" parent="1">
          <mxGeometry x="344" y="456" width="140" height="70" as="geometry" />
        </mxCell>
        <mxCell id="JOvnXS3k0YMZ6g1WqxkN-15" value="Update Order" style="ellipse;whiteSpace=wrap;html=1;" vertex="1" parent="1">
          <mxGeometry x="344" y="713" width="140" height="70" as="geometry" />
        </mxCell>
        <mxCell id="JOvnXS3k0YMZ6g1WqxkN-18" value="Remove Order" style="ellipse;whiteSpace=wrap;html=1;" vertex="1" parent="1">
          <mxGeometry x="344" y="841" width="140" height="70" as="geometry" />
        </mxCell>
        <mxCell id="JOvnXS3k0YMZ6g1WqxkN-21" value="Finish Order" style="ellipse;whiteSpace=wrap;html=1;" vertex="1" parent="1">
          <mxGeometry x="344" y="970" width="140" height="70" as="geometry" />
        </mxCell>
        <mxCell id="JOvnXS3k0YMZ6g1WqxkN-25" value="Recovery Password" style="ellipse;whiteSpace=wrap;html=1;" vertex="1" parent="1">
          <mxGeometry x="344" y="327" width="140" height="70" as="geometry" />
        </mxCell>
        <mxCell id="JOvnXS3k0YMZ6g1WqxkN-28" value="Create User" style="ellipse;whiteSpace=wrap;html=1;" vertex="1" parent="1">
          <mxGeometry x="344" y="70" width="140" height="70" as="geometry" />
        </mxCell>
      </root>
    </mxGraphModel>
  </diagram>
</mxfile>
